<svg viewBox="0 0 25 25" xmlns="http://www.w3.org/2000/svg" fill-rule="evenodd" clip-rule="evenodd" stroke-linejoin="round" stroke-miterlimit="2"><path d="M12.5 0C19.399 0 25 5.601 25 12.5S19.399 25 12.5 25 0 19.399 0 12.5 5.601 0 12.5 0zM6.941 4.999H4.952v11.009a5 5 0 105.001-5.001v1.988a3.012 3.012 0 11-3.013 3.013l.001-11.009zm16.008 11.009c0-7.178-5.818-12.997-12.996-12.997V5C16.032 5 20.96 9.928 20.96 16.008h1.989zm-3.997 0a8.999 8.999 0 00-8.999-8.999v2.004a6.995 6.995 0 016.995 6.995h2.004z"/><path d="M4.952 15.008h1.989" fill="none"/></svg>