<?xml version="1.0" encoding="UTF-8" standalone="no"?><!DOCTYPE svg PUBLIC "-//W3C//DTD SVG 1.1//EN" "http://www.w3.org/Graphics/SVG/1.1/DTD/svg11.dtd"><svg width="100%" height="100%" viewBox="0 0 19 19" version="1.1" xmlns="http://www.w3.org/2000/svg" xmlns:xlink="http://www.w3.org/1999/xlink" xml:space="preserve" xmlns:serif="http://www.serif.com/" style="fill-rule:evenodd;clip-rule:evenodd;stroke-linejoin:round;stroke-miterlimit:2;"><g id="GitHub"><path id="GitHub1" serif:id="GitHub" d="M9.374,0c-5.176,0 -9.374,4.197 -9.374,9.376c0,4.141 2.686,7.655 6.411,8.895c0.469,0.086 0.64,-0.204 0.64,-0.452c0,-0.222 -0.008,-0.812 -0.012,-1.594c-2.608,0.567 -3.158,-1.257 -3.158,-1.257c-0.427,-1.083 -1.041,-1.371 -1.041,-1.371c-0.852,-0.582 0.064,-0.57 0.064,-0.57c0.941,0.066 1.436,0.966 1.436,0.966c0.836,1.433 2.194,1.019 2.729,0.779c0.085,-0.606 0.327,-1.019 0.595,-1.254c-2.082,-0.236 -4.271,-1.041 -4.271,-4.633c0,-1.023 0.366,-1.86 0.965,-2.516c-0.096,-0.237 -0.418,-1.19 0.093,-2.481c0,0 0.786,-0.252 2.577,0.961c0.748,-0.207 1.55,-0.312 2.347,-0.315c0.797,0.003 1.599,0.108 2.347,0.315c1.79,-1.213 2.576,-0.961 2.576,-0.961c0.511,1.291 0.19,2.244 0.094,2.481c0.6,0.656 0.963,1.493 0.963,2.516c0,3.602 -2.192,4.394 -4.28,4.626c0.336,0.289 0.636,0.862 0.636,1.736c0,1.254 -0.012,2.265 -0.012,2.572c0,0.251 0.169,0.543 0.645,0.451c3.722,-1.242 6.406,-4.754 6.406,-8.894c0,-5.179 -4.198,-9.376 -9.376,-9.376Z" style="fill:#0d0d0d;"/></g></svg>