<?xml version="1.0" encoding="UTF-8" standalone="no"?><!DOCTYPE svg PUBLIC "-//W3C//DTD SVG 1.1//EN" "http://www.w3.org/Graphics/SVG/1.1/DTD/svg11.dtd"><svg width="100%" height="100%" viewBox="0 0 25 25" version="1.1" xmlns="http://www.w3.org/2000/svg" xmlns:xlink="http://www.w3.org/1999/xlink" xml:space="preserve" xmlns:serif="http://www.serif.com/" style="fill-rule:evenodd;clip-rule:evenodd;stroke-linejoin:round;stroke-miterlimit:2;"><path d="M9.497,23.606c-0.045,0.127 -0.323,0.87 -0.949,0.756c-4.967,-1.653 -8.548,-6.339 -8.548,-11.861c0,-6.905 5.597,-12.501 12.499,-12.501c6.904,-0 12.501,5.596 12.501,12.501c0,5.521 -3.578,10.203 -8.542,11.859c-0.633,0.122 -0.775,-0.354 -0.955,-0.754c-0.568,-1.265 -0.442,-4.067 -0.14,-4.956c0.376,-1.104 1.158,-2.264 1.89,-2.465c0.62,-0.17 1.831,0.529 1.831,0.529c-0,-0 0.005,-0.44 -0.237,-0.964c-0.198,-0.43 -0.697,-0.935 -0.697,-0.935c0,-0 0.532,0.16 1.175,0.221c0.681,0.063 1.274,0.002 1.274,0.002c0,-0 -0.693,-0.32 -1.329,-0.759c-0.509,-0.351 -1.238,-0.945 -1.238,-0.945c-0,-0 0.3,0.109 0.815,0.245c0.315,0.084 0.882,0.179 0.882,0.179c-0,0 -0.738,-0.609 -1.091,-1.033c-0.353,-0.424 -0.395,-0.652 -0.495,-1.015c-0.111,-0.4 0.031,-0.703 -0.167,-1.382c-0.182,-0.627 -0.358,-0.983 -0.358,-0.983c-0,-0 0.757,-1.261 1.064,-2.151c0.308,-0.89 0.05,-2.667 0.05,-2.667c-0,-0 -0.079,-0.169 -0.871,0.301c-0.791,0.47 -1.332,0.464 -1.823,0.675c-0.49,0.212 -0.845,0.985 -0.845,0.985c-0,-0 -1.563,-0.487 -2.693,-0.482c-1.303,0.007 -2.707,0.482 -2.707,0.482c0,-0 -0.355,-0.773 -0.846,-0.985c-0.49,-0.211 -1.031,-0.205 -1.823,-0.675c-0.791,-0.47 -0.87,-0.301 -0.87,-0.301c-0,-0 -0.258,1.777 0.049,2.667c0.308,0.89 1.065,2.151 1.065,2.151c-0,-0 -0.205,0.365 -0.366,1.075c-0.172,0.755 -0.038,0.906 -0.145,1.29c-0.1,0.363 -0.142,0.591 -0.495,1.015c-0.353,0.424 -1.091,1.033 -1.091,1.033c0,0 0.567,-0.095 0.882,-0.179c0.515,-0.136 0.815,-0.245 0.815,-0.245c0,-0 -0.729,0.594 -1.238,0.945c-0.636,0.439 -1.329,0.759 -1.329,0.759c-0,-0 0.593,0.061 1.274,-0.002c0.643,-0.061 1.175,-0.221 1.175,-0.221c-0,-0 -0.499,0.505 -0.697,0.935c-0.242,0.524 -0.237,0.964 -0.237,0.964c0,-0 1.211,-0.699 1.831,-0.529c0.732,0.201 1.521,1.359 1.89,2.465c0.364,1.096 0.167,4.097 -0.14,4.956Z"/></svg>