<?xml version="1.0" encoding="UTF-8" standalone="no"?><!DOCTYPE svg PUBLIC "-//W3C//DTD SVG 1.1//EN" "http://www.w3.org/Graphics/SVG/1.1/DTD/svg11.dtd"><svg width="100%" height="100%" viewBox="0 0 114 83" version="1.1" xmlns="http://www.w3.org/2000/svg" xmlns:xlink="http://www.w3.org/1999/xlink" xml:space="preserve" xmlns:serif="http://www.serif.com/" style="fill-rule:evenodd;clip-rule:evenodd;stroke-linejoin:round;stroke-miterlimit:2;"><rect id="Outline" x="0" y="0" width="114" height="82.3" style="fill:none;"/><clipPath id="_clip1"><rect x="0" y="0" width="114" height="82.3"/></clipPath><g clip-path="url(#_clip1)"><g><path d="M3,0c-1.072,0 -2.062,0.572 -2.598,1.5c-0.536,0.928 -0.536,2.071 -0.001,2.999l44,76.267c0.537,0.93 1.53,1.502 2.604,1.501l64,-0.107c1.071,-0.002 2.06,-0.574 2.595,-1.503c0.534,-0.928 0.533,-2.07 -0.002,-2.998l-44,-76.16c-0.536,-0.928 -1.527,-1.499 -2.598,-1.499l-64,0Z" style="fill:#fff;"/><g><path d="M3,2.973l44,76.267l22,-0l-44,-76.267l-22,0Z" style="fill:#965ec8;"/><path d="M24,2.973l44,76.267l22,-0l-44,-76.267l-22,0Z" style="fill:#868686;"/><path d="M45,3.027l44,76.266l22,0l-44,-76.266l-22,-0Z" style="fill:#b28f5b;"/></g></g></g></svg>