<svg width="100%" height="100%" viewBox="0 0 25 25" version="1.1" xmlns="http://www.w3.org/2000/svg" xmlns:xlink="http://www.w3.org/1999/xlink" style="fill-rule:evenodd;clip-rule:evenodd;stroke-linejoin:round;stroke-miterlimit:2;"><path id="Telegram" d="M12.489,0c7.492,0 12.511,6.489 12.511,12.473c0,5.983 -4.98,12.497 -12.511,12.497c-6.037,0 -12.489,-5.158 -12.489,-12.497c0,-5.743 4.62,-12.473 12.489,-12.473Zm-1.646,15.77l4.446,2.985c0,0 1.491,0.871 1.823,-0.932c0.468,-2.534 1.26,-8.262 1.457,-9.983c0.029,-0.252 -0.067,-0.738 -1.197,-0.58c-1.063,0.15 -12.357,5.125 -12.357,5.125c0,0 -1.101,0.638 -0.373,1.017c0.729,0.379 2.541,0.879 2.541,0.879c0,0 1.031,0.222 1.444,0c0.412,-0.223 5.969,-4.023 5.969,-4.023c0,0 0.749,-0.387 0.366,0.308c-0.24,0.437 -4.33,4.218 -4.33,4.218c0,0 -0.32,0.537 0.211,0.986Z"/></svg>
