<svg viewBox="0 0 122 91" xmlns="http://www.w3.org/2000/svg" fill-rule="evenodd" clip-rule="evenodd" stroke-linejoin="round" stroke-miterlimit="2"><path fill="none" d="M0 0h122v90.3H0z"/><clipPath id="a"><path d="M0 0h122v90.3H0z"/></clipPath><g clip-path="url(#a)"><path d="M7-.32A7 7 0 00.936 10.176l44 76.32A7 7 0 0051 90h64a7 7 0 006.064-10.496l-44-76.32A7 7 0 0071-.32H7z" fill="#fff"/><path d="M7 6.707l44 76.266h22L29 6.707H7z" fill="#965ec8"/><path d="M28 6.707l44 76.266h22L50 6.707H28z" fill="#868686"/><path d="M49 6.76l44 76.267h22L71 6.76H49z" fill="#b28f5b"/></g></svg>