<svg viewBox="0 0 122 91" xmlns="http://www.w3.org/2000/svg" fill-rule="evenodd" clip-rule="evenodd" stroke-linejoin="round" stroke-miterlimit="2"><path fill="none" d="M0 0h122v90.3H0z"/><clipPath id="a"><path d="M0 0h122v90.3H0z"/></clipPath><g clip-path="url(#a)"><path d="M7-.16A7 7 0 00.936 10.336l44 76.32A7 7 0 0051 90.16h64a7 7 0 006.064-10.496l-44-76.32A7 7 0 0071-.16H7z" fill="#fff"/><path d="M7 6.84l44 76.267h22L29 6.84H7z" fill="#6e3fa3"/><path d="M28 6.84l44 76.267h22L50 6.84H28z" fill="#3b3b3b"/><path d="M49 6.893L93 83.16h22L71 6.893H49z" fill="#ba905a"/></g></svg>