<?xml version="1.0" encoding="UTF-8" standalone="no"?><!DOCTYPE svg PUBLIC "-//W3C//DTD SVG 1.1//EN" "http://www.w3.org/Graphics/SVG/1.1/DTD/svg11.dtd"><svg width="100%" height="100%" viewBox="0 0 25 25" version="1.1" xmlns="http://www.w3.org/2000/svg" xmlns:xlink="http://www.w3.org/1999/xlink" xml:space="preserve" xmlns:serif="http://www.serif.com/" style="fill-rule:evenodd;clip-rule:evenodd;stroke-linejoin:round;stroke-miterlimit:2;"><path d="M12.5,0c6.899,0 12.5,5.601 12.5,12.5c0,6.899 -5.601,12.5 -12.5,12.5c-6.899,0 -12.5,-5.601 -12.5,-12.5c0,-6.899 5.601,-12.5 12.5,-12.5Zm-2.5,21.268c0,0.194 -0.077,0.38 -0.215,0.517c-0.137,0.138 -0.323,0.215 -0.517,0.215c-0.897,-0 -2.296,-0 -2.296,-0c-0.537,-0 -0.972,-0.435 -0.972,-0.972l0,-9.028l-2.146,0c-0.303,0 -0.576,-0.185 -0.688,-0.466c-0.113,-0.282 -0.043,-0.604 0.177,-0.813c2.269,-2.161 6.783,-6.46 8.486,-8.082c0.376,-0.358 0.966,-0.358 1.342,0c1.712,1.631 6.264,5.966 8.522,8.116c0.213,0.203 0.282,0.517 0.172,0.791c-0.11,0.274 -0.375,0.454 -0.671,0.454l-2.194,-0l0,9.021c0,0.26 -0.103,0.509 -0.287,0.692c-0.183,0.184 -0.432,0.287 -0.692,0.287l-2.319,-0c-0.388,-0 -0.702,-0.314 -0.702,-0.702c-0,-1.165 -0,-3.482 -0,-4.626c0,-0.178 -0.071,-0.349 -0.197,-0.475c-0.126,-0.126 -0.297,-0.197 -0.475,-0.197c-0.949,0 -2.676,0 -3.636,0c-0.184,-0 -0.36,0.073 -0.489,0.203c-0.13,0.129 -0.203,0.305 -0.203,0.489c-0,1.141 -0,3.408 -0,4.576Z"/></svg>