<svg viewBox="0 0 25 25" xmlns="http://www.w3.org/2000/svg" fill-rule="evenodd" clip-rule="evenodd" stroke-linejoin="round" stroke-miterlimit="2"><path d="M12.499 0C5.597 0 0 5.596 0 12.501c0 5.522 3.581 10.208 8.548 11.861.626.114.854-.272.854-.603 0-.297-.011-1.083-.017-2.126-3.477.756-4.211-1.675-4.211-1.675-.568-1.445-1.388-1.829-1.388-1.829-1.135-.776.086-.76.086-.76 1.255.089 1.915 1.288 1.915 1.288 1.115 1.911 2.926 1.359 3.638 1.039.113-.808.436-1.359.793-1.671-2.775-.316-5.694-1.388-5.694-6.178 0-1.365.488-2.481 1.287-3.355-.129-.316-.558-1.586.123-3.308 0 0 1.049-.336 3.437 1.282a11.993 11.993 0 013.129-.421c1.062.005 2.131.144 3.13.421 2.386-1.618 3.434-1.282 3.434-1.282.682 1.722.253 2.992.125 3.308.801.874 1.284 1.99 1.284 3.355 0 4.802-2.923 5.858-5.707 6.168.449.386.848 1.148.848 2.315 0 1.671-.015 3.019-.015 3.429 0 .334.226.723.859.601C21.422 22.704 25 18.022 25 12.501 25 5.596 19.403 0 12.499 0z"/></svg>