<?xml version="1.0" encoding="UTF-8" standalone="no"?><!DOCTYPE svg PUBLIC "-//W3C//DTD SVG 1.1//EN" "http://www.w3.org/Graphics/SVG/1.1/DTD/svg11.dtd"><svg width="100%" height="100%" viewBox="0 0 25 25" version="1.1" xmlns="http://www.w3.org/2000/svg" xmlns:xlink="http://www.w3.org/1999/xlink" xml:space="preserve" xmlns:serif="http://www.serif.com/" style="fill-rule:evenodd;clip-rule:evenodd;stroke-linejoin:round;stroke-miterlimit:2;"><path d="M12.5,0c6.899,0 12.5,5.601 12.5,12.5c0,6.899 -5.601,12.5 -12.5,12.5c-6.899,0 -12.5,-5.601 -12.5,-12.5c0,-6.899 5.601,-12.5 12.5,-12.5Zm6.5,17l0,2l-15,0l0,-11l2,0l0,-2l15,0l0,11l-2,0Zm0,-1l0,-8l-12,0l0,-1l13,-0l0,9l-1,0Zm-1,-2.997c-0.546,-0.407 -1.26,-0.735 -2,-0.503c-1.556,0.487 -2.746,3.196 -4,2.5c-1.364,-0.757 -1.719,-4.027 -4.587,-4c-1.066,0.01 -1.86,0.21 -2.413,0.429l0,-2.429l13,-0l-0,4.003Z"/></svg>