<?xml version="1.0" encoding="UTF-8" standalone="no"?><!DOCTYPE svg PUBLIC "-//W3C//DTD SVG 1.1//EN" "http://www.w3.org/Graphics/SVG/1.1/DTD/svg11.dtd"><svg width="100%" height="100%" viewBox="0 0 25 25" version="1.1" xmlns="http://www.w3.org/2000/svg" xmlns:xlink="http://www.w3.org/1999/xlink" xml:space="preserve" xmlns:serif="http://www.serif.com/" style="fill-rule:evenodd;clip-rule:evenodd;stroke-linejoin:round;stroke-miterlimit:2;"><path d="M12.5,0c6.899,0 12.5,5.601 12.5,12.5c0,6.899 -5.601,12.5 -12.5,12.5c-6.899,0 -12.5,-5.601 -12.5,-12.5c0,-6.899 5.601,-12.5 12.5,-12.5Zm8.5,13.993c0.002,0.005 0.002,0.007 0,0.007l0,5l-17,0l0,-13l17,0l0,7.993Zm-1,-1.013c-0.587,-0.493 -1.34,-0.979 -2,-0.98c-1.337,-0.001 -3.316,1.443 -5.5,1.496c-2.184,0.053 -2.081,-4.477 -4.038,-4.496c-1.117,-0.011 -2.529,1.105 -3.462,1.979l0,-3.979l15,-0l0,5.98Z"/></svg>