<?xml version="1.0" encoding="UTF-8" standalone="no"?><!DOCTYPE svg PUBLIC "-//W3C//DTD SVG 1.1//EN" "http://www.w3.org/Graphics/SVG/1.1/DTD/svg11.dtd"><svg width="100%" height="100%" viewBox="0 0 25 25" version="1.1" xmlns="http://www.w3.org/2000/svg" xmlns:xlink="http://www.w3.org/1999/xlink" xml:space="preserve" xmlns:serif="http://www.serif.com/" style="fill-rule:evenodd;clip-rule:evenodd;stroke-linejoin:round;stroke-miterlimit:2;"><path d="M12.5,0c6.899,0 12.5,5.601 12.5,12.5c0,6.899 -5.601,12.5 -12.5,12.5c-6.899,0 -12.5,-5.601 -12.5,-12.5c0,-6.899 5.601,-12.5 12.5,-12.5Zm-1.2,21.268l0,-2.411l2.411,0l0,2.411l-2.411,0Zm0.13,-4.246c-0.008,-0.282 -0.012,-0.494 -0.012,-0.635c-0,-0.831 0.118,-1.548 0.353,-2.152c0.172,-0.455 0.451,-0.914 0.835,-1.376c0.282,-0.337 0.79,-0.829 1.523,-1.476c0.733,-0.647 1.209,-1.163 1.429,-1.547c0.22,-0.384 0.329,-0.804 0.329,-1.259c0,-0.823 -0.321,-1.546 -0.964,-2.17c-0.643,-0.623 -1.431,-0.935 -2.364,-0.935c-0.902,0 -1.655,0.283 -2.258,0.847c-0.604,0.565 -1,1.447 -1.188,2.647l-2.176,-0.259c0.196,-1.608 0.778,-2.839 1.746,-3.693c0.969,-0.855 2.249,-1.282 3.841,-1.282c1.685,-0 3.03,0.458 4.034,1.376c1.003,0.917 1.505,2.027 1.505,3.328c0,0.753 -0.176,1.447 -0.529,2.082c-0.353,0.635 -1.043,1.408 -2.07,2.317c-0.69,0.612 -1.141,1.063 -1.353,1.353c-0.211,0.29 -0.368,0.623 -0.47,1c-0.102,0.376 -0.161,0.988 -0.177,1.834l-2.034,0Z"/></svg>