<svg viewBox="0 0 25 25" xmlns="http://www.w3.org/2000/svg" fill-rule="evenodd" clip-rule="evenodd" stroke-linejoin="round" stroke-miterlimit="2"><path d="M5.917 22.837c-.032.073-.022.28-.232.144A12.488 12.488 0 010 12.501C0 5.596 5.597 0 12.499 0 19.403 0 25 5.596 25 12.501c0 4.343-2.214 8.167-5.576 10.407-.342.228-.317-.022-.356-.104-.76-1.615-4.335.64-3.705-4.154.152-1.156 1.158-2.264 1.89-2.465.62-.17 2.3.404 2.3.404s-.166-.576-.477-1.061c-.297-.464-.931-1.228-.931-1.228s.709.206 1.241.254c.551.05 1.3-.017 1.3-.017s-1.57-.481-2.543-2.827c-.153-.368.027-.535-.145-1.29-.161-.71-.366-1.075-.366-1.075s.757-1.261 1.065-2.151c.307-.89.049-2.667.049-2.667s-.079-.169-.87.301c-.792.47-1.222.583-1.713.794-.491.212-.956.866-.956.866s-1.577-.487-2.707-.482c-1.303.007-2.707.482-2.707.482s-.465-.654-.956-.866c-.491-.211-.921-.324-1.713-.794-.791-.47-.87-.301-.87-.301s-.258 1.777.049 2.667c.308.89 1.065 2.151 1.065 2.151s-.205.365-.366 1.075c-.172.755.008.922-.145 1.29-.973 2.346-2.543 2.827-2.543 2.827s.749.067 1.3.017c.532-.048 1.241-.254 1.241-.254s-.634.764-.931 1.228c-.311.485-.477 1.061-.477 1.061s1.68-.574 2.3-.404c.732.201 1.738 1.309 1.89 2.465.634 4.825-2.992 2.509-3.72 4.187z"/></svg>